{
	"asset":{
		"generator":"Khronos glTF Blender I/O v4.5.47",
		"version":"2.0"
	},
	"extensionsUsed":[
		"KHR_materials_unlit"
	],
	"scene":0,
	"scenes":[
		{
			"name":"Scene",
			"nodes":[
				2
			]
		}
	],
	"nodes":[
		{
			"mesh":0,
			"name":"Object_2"
		},
		{
			"children":[
				0
			],
			"name":"model_Tiramisu_20210915_190309845.obj.cleaner.materialmerger.gl"
		},
		{
			"children":[
				1
			],
			"name":"Sketchfab_model",
			"rotation":[
				-0.70710688829422,
				0,
				0,
				0.7071066498756409
			]
		}
	],
	"materials":[
		{
			"doubleSided":true,
			"extensions":{
				"KHR_materials_unlit":{}
			},
			"name":"material0",
			"pbrMetallicRoughness":{
				"baseColorTexture":{
					"index":0
				},
				"metallicFactor":0,
				"roughnessFactor":0.9
			}
		}
	],
	"meshes":[
		{
			"name":"Object_0",
			"primitives":[
				{
					"attributes":{
						"POSITION":0,
						"NORMAL":1,
						"TEXCOORD_0":2
					},
					"indices":3,
					"material":0
				}
			]
		}
	],
	"textures":[
		{
			"sampler":0,
			"source":0
		}
	],
	"images":[
		{
			"mimeType":"image/jpeg",
			"name":"Image_0",
			"uri":"Image_0.jpg"
		}
	],
	"accessors":[
		{
			"bufferView":0,
			"componentType":5126,
			"count":25378,
			"max":[
				73.33332824707031,
				73.08495330810547,
				-26.26439094543457
			],
			"min":[
				-73.33332824707031,
				-73.08495330810547,
				-74.0740737915039
			],
			"type":"VEC3"
		},
		{
			"bufferView":1,
			"componentType":5126,
			"count":25378,
			"type":"VEC3"
		},
		{
			"bufferView":2,
			"componentType":5126,
			"count":25378,
			"type":"VEC2"
		},
		{
			"bufferView":3,
			"componentType":5123,
			"count":132537,
			"type":"SCALAR"
		}
	],
	"bufferViews":[
		{
			"buffer":0,
			"byteLength":304536,
			"byteOffset":0,
			"target":34962
		},
		{
			"buffer":0,
			"byteLength":304536,
			"byteOffset":304536,
			"target":34962
		},
		{
			"buffer":0,
			"byteLength":203024,
			"byteOffset":609072,
			"target":34962
		},
		{
			"buffer":0,
			"byteLength":265074,
			"byteOffset":812096,
			"target":34963
		}
	],
	"samplers":[
		{
			"magFilter":9729,
			"minFilter":9987
		}
	],
	"buffers":[
		{
			"byteLength":1077172,
			"uri":"tiramisu.bin"
		}
	]
}
